<svg xmlns="http://www.w3.org/2000/svg" width="106.688" height="24.468" viewBox="0 0 106.688 24.468">
  <defs>
    <style>
      .cls-1 {
        fill: #fff;
        fill-rule: evenodd;
      }
    </style>
  </defs>
  <path id="_" data-name="}" class="cls-1" d="M633.331,470.191a9.175,9.175,0,0,1,3.059,2.2,10.344,10.344,0,0,1,2.018,3.334,11.662,11.662,0,0,1,.735,4.19h1.223a12.106,12.106,0,0,1,.7-4.19,9.9,9.9,0,0,1,1.988-3.334,9.145,9.145,0,0,1,3.059-2.2,9.461,9.461,0,0,1,3.915-.795,36.817,36.817,0,0,1,6.913.642q3.363,0.643,6.668,1.438t6.7,1.438a37.619,37.619,0,0,0,7,.642,17.579,17.579,0,0,0,6.178-1.07,15.519,15.519,0,0,0,5.017-3,13.783,13.783,0,0,0,3.364-4.649,14.385,14.385,0,0,0,1.224-5.965v-3.426h-0.489a0.6,0.6,0,0,0-.612.734v2.692a13.321,13.321,0,0,1-1.04,5.261,12.428,12.428,0,0,1-2.967,4.252,13.736,13.736,0,0,1-4.619,2.814,17.152,17.152,0,0,1-6.056,1.009,36.97,36.97,0,0,1-6.883-.642q-3.394-.642-6.79-1.438t-6.791-1.437a36.544,36.544,0,0,0-6.821-.642,9.825,9.825,0,0,0-4.129.825,10.377,10.377,0,0,0-5.139,4.986,11.376,11.376,0,0,0-1.01,3.059,13.432,13.432,0,0,0-1.07-3.059,10.446,10.446,0,0,0-2.05-2.875,10.61,10.61,0,0,0-3.058-2.111,9.63,9.63,0,0,0-4.1-.825,36.537,36.537,0,0,0-6.821.642q-3.4.642-6.791,1.437t-6.791,1.438a36.951,36.951,0,0,1-6.882.642,17.152,17.152,0,0,1-6.056-1.009,13.736,13.736,0,0,1-4.619-2.814,12.428,12.428,0,0,1-2.967-4.252,13.321,13.321,0,0,1-1.04-5.261v-2.692a0.6,0.6,0,0,0-.612-0.734h-0.489v3.426a14.4,14.4,0,0,0,1.223,5.965A13.8,13.8,0,0,0,591,469.488a15.524,15.524,0,0,0,5.016,3,17.589,17.589,0,0,0,6.179,1.07,37.635,37.635,0,0,0,7-.642q3.394-.642,6.7-1.438t6.637-1.438a36.657,36.657,0,0,1,6.944-.642A9.322,9.322,0,0,1,633.331,470.191Z" transform="translate(-586.406 -455.438)"/>
</svg>
